<?xml version="1.0" standalone="no"?>
<!DOCTYPE svg PUBLIC "-//W3C//DTD SVG 20010904//EN"
 "http://www.w3.org/TR/2001/REC-SVG-20010904/DTD/svg10.dtd">
<svg version="1.0" xmlns="http://www.w3.org/2000/svg"
 width="128.000000pt" height="128.000000pt" viewBox="0 0 128.000000 128.000000"
 preserveAspectRatio="xMidYMid meet">

<g transform="translate(0.000000,128.000000) scale(0.100000,-0.100000)"
fill="#000000" stroke="none">
<path d="M240 640 l0 -320 40 0 c33 0 40 3 40 20 0 13 7 20 20 20 13 0 20 7
20 20 0 13 7 20 20 20 13 0 20 7 20 20 0 13 7 20 20 20 17 0 20 7 20 40 0 33
3 40 20 40 18 0 20 -7 20 -60 l0 -60 40 0 c33 0 40 -3 40 -20 0 -19 7 -20 200
-20 193 0 200 1 200 20 0 17 7 20 40 20 33 0 40 3 40 20 0 13 7 20 20 20 13 0
20 7 20 20 0 13 7 20 20 20 13 0 20 7 20 20 0 13 7 20 20 20 19 0 20 7 20 120
0 113 -1 120 -20 120 -17 0 -20 7 -20 40 0 33 -3 40 -20 40 -17 0 -20 7 -20
40 0 33 -3 40 -20 40 -13 0 -20 7 -20 20 0 19 -7 20 -200 20 -193 0 -200 -1
-200 -20 0 -18 -7 -20 -60 -20 -53 0 -60 -2 -60 -20 0 -13 -7 -20 -20 -20 -17
0 -20 -7 -20 -40 0 -33 -3 -40 -20 -40 -17 0 -20 -7 -20 -40 0 -33 -3 -40 -20
-40 -17 0 -20 7 -20 40 0 33 -3 40 -20 40 -17 0 -20 7 -20 40 0 33 -3 40 -20
40 -13 0 -20 7 -20 20 0 13 -7 20 -20 20 -13 0 -20 7 -20 20 0 13 -7 20 -20
20 -20 0 -20 -7 -20 -320z m760 260 c0 -13 7 -20 20 -20 17 0 20 -7 20 -40 0
-33 3 -40 20 -40 13 0 20 -7 20 -20 0 -13 7 -20 20 -20 19 0 20 -7 20 -100 0
-93 -1 -100 -20 -100 -13 0 -20 -7 -20 -20 0 -13 -7 -20 -20 -20 -13 0 -20 -7
-20 -20 0 -13 -7 -20 -20 -20 -13 0 -20 -7 -20 -20 0 -17 -7 -20 -40 -20 -33
0 -40 -3 -40 -20 0 -19 -7 -20 -160 -20 -153 0 -160 1 -160 20 0 17 -7 20 -40
20 l-40 0 0 80 c0 73 -2 80 -20 80 -18 0 -20 7 -20 80 0 73 2 80 20 80 17 0
20 7 20 40 0 33 3 40 20 40 13 0 20 7 20 20 0 18 7 20 60 20 53 0 60 2 60 20
0 19 7 20 160 20 153 0 160 -1 160 -20z m-680 -100 c0 -33 3 -40 20 -40 17 0
20 -7 20 -40 0 -33 3 -40 20 -40 17 0 20 -7 20 -40 0 -33 3 -40 20 -40 13 0
20 -7 20 -20 0 -13 -7 -20 -20 -20 -17 0 -20 -7 -20 -40 0 -33 -3 -40 -20 -40
-13 0 -20 -7 -20 -20 0 -13 -7 -20 -20 -20 -13 0 -20 -7 -20 -20 0 -13 -7 -20
-20 -20 -19 0 -20 7 -20 220 0 213 1 220 20 220 17 0 20 -7 20 -40z"/>
<path d="M880 760 c0 -33 3 -40 20 -40 13 0 20 7 20 20 0 13 7 20 20 20 13 0
20 7 20 20 0 17 -7 20 -40 20 l-40 0 0 -40z"/>
<path d="M680 720 c0 -33 3 -40 20 -40 13 0 20 7 20 20 0 17 7 20 40 20 33 0
40 3 40 20 0 18 -7 20 -60 20 l-60 0 0 -40z"/>
<path d="M760 600 l0 -40 100 0 100 0 0 40 c0 33 -3 40 -20 40 -13 0 -20 -7
-20 -20 0 -18 -7 -20 -60 -20 -53 0 -60 2 -60 20 0 13 -7 20 -20 20 -17 0 -20
-7 -20 -40z"/>
</g>
</svg>
